<?xml version="1.0" encoding="UTF-8"?>
<svg width="276px" height="277px" viewBox="0 0 276 277" version="1.1" xmlns="http://www.w3.org/2000/svg" xmlns:xlink="http://www.w3.org/1999/xlink">
    <!-- Generator: Sketch 45.1 (43504) - http://www.bohemiancoding.com/sketch -->
    <title>minesweeper_Asset3</title>
    <desc>Created with Sketch.</desc>
    <defs></defs>
    <g id="Page-1" stroke="none" stroke-width="1" fill="none" fill-rule="evenodd">
        <g id="minesweeper_Asset3">
            <rect id="Rectangle-path" fill="#4E768D" fill-rule="nonzero" x="0" y="94.38" width="87.17" height="87.17"></rect>
            <rect id="Rectangle-path" fill="#F87B7C" fill-rule="nonzero" x="94.68" y="94.83" width="86.17" height="86.17"></rect>
            <rect id="Rectangle-path" fill="#4E768D" fill-rule="nonzero" x="188.35" y="94.33" width="87.17" height="87.17"></rect>
            <rect id="Rectangle-path" fill="#4E768D" fill-rule="nonzero" x="0" y="0.18" width="87.17" height="87.17"></rect>
            <rect id="Rectangle-path" fill="#4E768D" fill-rule="nonzero" x="94.18" y="0.11" width="87.17" height="87.17"></rect>
            <rect id="Rectangle-path" fill="#4E768D" fill-rule="nonzero" x="188.35" y="0" width="87.1699982" height="87.17"></rect>
            <rect id="Rectangle-path" fill="#4E768D" fill-rule="nonzero" x="0" y="189.38" width="87.17" height="87.17"></rect>
            <rect id="Rectangle-path" fill="#4E768D" fill-rule="nonzero" x="94.18" y="189.33" width="87.17" height="87.17"></rect>
            <rect id="Rectangle-path" fill="#4E768D" fill-rule="nonzero" x="188.35" y="189.33" width="87.17" height="87.17"></rect>
            <polygon id="Shape" fill="#204056" fill-rule="nonzero" points="128.35 114 132.35 114 137.35 122 142.35 114 145.95 114 142.44958 119.523248 139.53 124.13 146.07 134.86 142.22 134.86 137.12 126.54 131.81 134.86 128 134.86 134.86 124.2"></polygon>
            <g id="0-1" transform="translate(232.000000, 137.000000) scale(-1, 1) translate(-232.000000, -137.000000) translate(199.000000, 122.000000)">
                <path d="M50.325,28.8461538 L63.525,28.8461538" id="Line-Copy-2" stroke="#F2F2F2" stroke-width="1.5" stroke-linecap="square"></path>
                <path d="M50.325,2.07692308 L63.525,2.07692308" id="Line" stroke="#F2F2F2" stroke-width="1.5" stroke-linecap="square"></path>
                <path d="M64.35,2.07692308 L64.35,28.8461538" id="Line-2" stroke="#F2F2F2" stroke-width="1.5" stroke-linecap="square"></path>
                <g id="Group-Copy" transform="translate(8.250000, 15.000000) scale(-1, 1) translate(-8.250000, -15.000000) " stroke="#F2F2F2" stroke-width="1.5" stroke-linecap="square">
                    <path d="M0.825,28.8461538 L14.025,28.8461538" id="Line-Copy-2"></path>
                    <path d="M0.825,2.07692308 L14.025,2.07692308" id="Line"></path>
                    <path d="M14.85,2.07692308 L14.85,28.8461538" id="Line-2"></path>
                </g>
                <g id="Group-9" transform="translate(32.312500, 16.730769) scale(-1, 1) translate(-32.312500, -16.730769) translate(11.000000, 5.769231)" fill-rule="nonzero" fill="#F2F2F2">
                    <path d="M10.84875,17.3076923 C9.04728593,18.2485471 6.76521407,18.2485471 4.96375,17.3076923 C4.08984413,16.8218626 3.37580504,16.1591783 2.8875,15.3807692 C1.80204017,13.5076334 1.28259896,11.4391148 1.375,9.35769231 C1.18230079,6.94651118 1.9199531,4.54734584 3.47875,2.51538462 C3.9595583,1.94836295 4.59016525,1.48236804 5.32125,1.15384615 C6.96458847,0.494215864 8.87541153,0.494215864 10.51875,1.15384615 C11.9835542,1.82448853 13.0750957,2.95184715 13.5575,4.29230769 C14.2131939,5.91158281 14.5340688,7.61302928 14.50625,9.32307692 C14.5907005,11.4238634 14.0520786,13.5093629 12.93875,15.3923077 C12.4447145,16.1678616 11.7259602,16.8265654 10.84875,17.3076923 L10.84875,17.3076923 Z M9.72125,2.96538462 C9.19252128,2.5614929 8.49712561,2.34628341 7.7825,2.36538462 C6.95884151,2.38968453 6.19596289,2.73538058 5.72,3.3 C4.5375,4.52307692 3.94625,6.52692308 3.94625,9.31153846 C3.87290362,10.9762115 4.20025892,12.636207 4.90875,14.1923077 L9.72125,2.96538462 Z M11,4.61538462 L6.2425,15.8192308 C6.76446985,16.177421 7.42506811,16.3622037 8.09875,16.3384615 C8.91375661,16.3105965 9.66648184,15.9648921 10.13375,15.4038462 C11.31625,14.1961538 11.9075,12.1923077 11.9075,9.39230769 C11.9727247,7.76590396 11.6646304,6.14414888 11,4.61538462 L11,4.61538462 Z" id="Shape"></path>
                    <polygon id="Shape" points="19.3325 21.3923077 20.02 14.55 23.47125 14.55 20.96875 21.3923077"></polygon>
                    <path d="M30.36,3.26538462 C31.9691454,2.65224617 33.4835717,1.87733929 34.87,0.957692308 L37.4,0.957692308 L37.4,16.1538462 L41.62125,16.1538462 L41.62125,17.7692308 L30.3875,17.7692308 L30.3875,16.1538462 L34.8975,16.1538462 L34.8975,3.23076923 L33.01375,4.17692308 C32.1739924,4.62316796 31.2908594,5.0091527 30.37375,5.33076923 L30.36,3.26538462 Z" id="Shape"></path>
                </g>
            </g>
            <g id="1-1" transform="translate(233.000000, 231.000000) scale(-1, 1) translate(-233.000000, -231.000000) translate(200.000000, 216.000000)">
                <path d="M51.5307692,28.8461538 L63.7153846,28.8461538" id="Line-Copy-2" stroke="#F2F2F2" stroke-width="1.5" stroke-linecap="square"></path>
                <path d="M51.5307692,2.07692308 L63.7153846,2.07692308" id="Line" stroke="#F2F2F2" stroke-width="1.5" stroke-linecap="square"></path>
                <path d="M64.4769231,2.07692308 L64.4769231,28.8461538" id="Line-2" stroke="#F2F2F2" stroke-width="1.5" stroke-linecap="square"></path>
                <g id="Group-Copy-5" transform="translate(7.615385, 15.000000) scale(-1, 1) translate(-7.615385, -15.000000) " stroke="#F2F2F2" stroke-width="1.5" stroke-linecap="square">
                    <path d="M0.761538462,28.8461538 L12.9461538,28.8461538" id="Line-Copy-2"></path>
                    <path d="M0.761538462,2.07692308 L12.9461538,2.07692308" id="Line"></path>
                    <path d="M13.7076923,2.07692308 L13.7076923,28.8461538" id="Line-2"></path>
                </g>
                <path d="M40.2980769,9.03461538 C41.7834419,8.42147694 43.1813739,7.64657006 44.4611538,6.72692308 L46.7965385,6.72692308 L46.7965385,21.9230769 L50.6930769,21.9230769 L50.6930769,23.5384615 L40.3234615,23.5384615 L40.3234615,21.9230769 L44.4865385,21.9230769 L44.4865385,9 L42.7476923,9.94615385 C41.9725315,10.3923987 41.1573317,10.7783835 40.3107692,11.1 L40.2980769,9.03461538 Z" id="Shape" fill="#F2F2F2" fill-rule="nonzero" transform="translate(45.495577, 15.132692) scale(-1, 1) translate(-45.495577, -15.132692) "></path>
                <polygon id="Shape" fill="#F2F2F2" fill-rule="nonzero" transform="translate(32.079808, 23.740385) scale(-1, 1) translate(-32.079808, -23.740385) " points="30.1696154 27.1615385 30.8042308 20.3192308 33.99 20.3192308 31.68 27.1615385"></polygon>
                <path d="M14.9134615,9.03461538 C16.3988265,8.42147694 17.7967585,7.64657006 19.0765385,6.72692308 L21.4119231,6.72692308 L21.4119231,21.9230769 L25.3084615,21.9230769 L25.3084615,23.5384615 L14.9388462,23.5384615 L14.9388462,21.9230769 L19.1019231,21.9230769 L19.1019231,9 L17.3630769,9.94615385 C16.5879161,10.3923987 15.7727163,10.7783835 14.9261538,11.1 L14.9134615,9.03461538 Z" id="Shape" fill="#F2F2F2" fill-rule="nonzero" transform="translate(20.110962, 15.132692) scale(-1, 1) translate(-20.110962, -15.132692) "></path>
            </g>
            <g id="1-0" transform="translate(139.000000, 231.000000) scale(-1, 1) translate(-139.000000, -231.000000) translate(106.000000, 216.000000)">
                <path d="M51.5307692,28.8461538 L63.7153846,28.8461538" id="Line-Copy-2" stroke="#F2F2F2" stroke-width="1.5" stroke-linecap="square"></path>
                <path d="M51.5307692,2.07692308 L63.7153846,2.07692308" id="Line" stroke="#F2F2F2" stroke-width="1.5" stroke-linecap="square"></path>
                <path d="M64.4769231,2.07692308 L64.4769231,28.8461538" id="Line-2" stroke="#F2F2F2" stroke-width="1.5" stroke-linecap="square"></path>
                <g id="Group-Copy-7" transform="translate(7.615385, 15.000000) scale(-1, 1) translate(-7.615385, -15.000000) " stroke="#F2F2F2" stroke-width="1.5" stroke-linecap="square">
                    <path d="M0.761538462,28.8461538 L12.9461538,28.8461538" id="Line-Copy-2"></path>
                    <path d="M0.761538462,2.07692308 L12.9461538,2.07692308" id="Line"></path>
                    <path d="M13.7076923,2.07692308 L13.7076923,28.8461538" id="Line-2"></path>
                </g>
                <g id="Group-8" transform="translate(32.365385, 17.884615) scale(-1, 1) translate(-32.365385, -17.884615) translate(13.961538, 6.923077)" fill-rule="nonzero" fill="#F2F2F2">
                    <path d="M0.406153846,3.15 C1.8915188,2.53686155 3.28945081,1.76195468 4.56923077,0.842307692 L6.90461538,0.842307692 L6.90461538,16.0038462 L10.8011538,16.0038462 L10.8011538,17.6538462 L0.431538462,17.6538462 L0.431538462,16.0038462 L4.59461538,16.0038462 L4.59461538,3.11538462 L2.85576923,4.06153846 C2.0806084,4.50778335 1.26540864,4.89376808 0.418846154,5.21538462 L0.406153846,3.15 Z" id="Shape"></path>
                    <polygon id="Shape" points="15.6115385 21.2769231 16.2461538 14.4346154 19.4319231 14.4346154 17.1219231 21.2769231"></polygon>
                    <path d="M33.1776923,17.2384615 C31.5148024,18.1793163 29.4082745,18.1793163 27.7453846,17.2384615 C26.9387023,16.7526318 26.2795893,16.0899475 25.8288462,15.3115385 C24.8011582,13.4285937 24.3039688,11.3430942 24.3819231,9.24230769 C24.2040469,6.83112657 24.8849567,4.43196122 26.3238462,2.4 C26.7828933,1.84149061 27.3780811,1.38729954 28.0626923,1.07307692 C29.5796201,0.413446633 31.3434568,0.413446633 32.8603846,1.07307692 C34.2125116,1.7437193 35.2200884,2.87107792 35.6653846,4.21153846 C36.2706406,5.83081358 36.5668327,7.53226005 36.5411538,9.24230769 C36.6191081,11.3430942 36.1219187,13.4285937 35.0942308,15.3115385 C34.6434877,16.0899475 33.9843746,16.7526318 33.1776923,17.2384615 L33.1776923,17.2384615 Z M32.1369231,2.89615385 C31.6488658,2.49226213 31.0069621,2.27705264 30.3473077,2.29615385 C29.5870075,2.32045376 28.8828119,2.66614981 28.4434615,3.23076923 C27.3519231,4.45384615 26.8061538,6.45769231 26.8061538,9.24230769 C26.7384495,10.9069807 27.0406236,12.5669763 27.6946154,14.1230769 L32.1369231,2.89615385 Z M33.2792308,4.47692308 L28.8876923,15.6807692 C29.3695106,16.0389595 29.9792936,16.2237422 30.6011538,16.2 C31.3534676,16.172135 32.0482909,15.8264305 32.4796154,15.2653846 C33.5711538,14.0576923 34.1169231,12.0538462 34.1169231,9.25384615 C34.1771305,7.62744242 33.8927357,6.00568735 33.2792308,4.47692308 Z" id="Shape"></path>
                </g>
            </g>
            <g id="1--1" transform="translate(44.000000, 231.000000) scale(-1, 1) translate(-44.000000, -231.000000) translate(11.000000, 216.000000)">
                <g id="Right-Bracket" transform="translate(6.947368, 15.000000) scale(-1, 1) translate(-6.947368, -15.000000) " stroke="#F2F2F2" stroke-width="1.5" stroke-linecap="square">
                    <path d="M0.694736842,28.8461538 L11.8105263,28.8461538" id="Line-Copy-2"></path>
                    <path d="M0.694736842,2.07692308 L11.8105263,2.07692308" id="Line"></path>
                    <path d="M12.5052632,2.07692308 L12.5052632,28.8461538" id="Line-2"></path>
                </g>
                <g id="Group-6" transform="translate(31.842105, 17.307692) scale(-1, 1) translate(-31.842105, -17.307692) translate(10.421053, 6.923077)" fill-rule="nonzero" fill="#F2F2F2">
                    <path d="M1.15789474,2.30769231 C2.51227316,1.6932533 3.78742727,0.918438949 4.95578947,0 L7.08631579,0 L7.08631579,15.1615385 L10.6410526,15.1615385 L10.6410526,16.8115385 L1.15789474,16.8115385 L1.15789474,15.1615385 L4.95578947,15.1615385 L4.95578947,2.30769231 L3.36947368,3.24230769 C2.66225452,3.68845753 1.91857173,4.074438 1.14631579,4.39615385 L1.15789474,2.30769231 Z" id="Shape"></path>
                    <polygon id="Shape" points="16.2105263 20.4346154 16.7894737 13.5923077 19.6842105 13.5923077 17.5768421 20.4346154"></polygon>
                    <polygon id="Shape" points="30.6031579 7.5 30.6031579 9.23076923 23.0305263 9.23076923 23.0305263 7.5"></polygon>
                    <path d="M33.1230315,2.52115385 C34.4774099,1.90671484 35.752564,1.13190049 36.9209262,0.213461538 L39.0514525,0.213461538 L39.0514525,15.375 L42.6061894,15.375 L42.6061894,17.025 L33.1461894,17.025 L33.1461894,15.375 L36.9440841,15.375 L36.9440841,2.52115385 L35.3577683,3.45576923 C34.6505491,3.90191907 33.9068663,4.28789954 33.1346104,4.60961538 L33.1230315,2.52115385 Z" id="Shape"></path>
                </g>
                <g id="Left-Bracket" transform="translate(52.105263, 0.000000)" stroke="#F2F2F2" stroke-width="1.5" stroke-linecap="square">
                    <path d="M0.694736842,28.8461538 L11.8105263,28.8461538" id="Line-Copy-2"></path>
                    <path d="M0.694736842,2.07692308 L11.8105263,2.07692308" id="Line"></path>
                    <path d="M12.5052632,2.07692308 L12.5052632,28.8461538" id="Line-2"></path>
                </g>
            </g>
            <g id="-1-1" transform="translate(233.000000, 44.000000) scale(-1, 1) translate(-233.000000, -44.000000) translate(200.000000, 29.000000)">
                <path d="M51.8037736,28.8461538 L63.7584906,28.8461538" id="Bottom" stroke="#F2F2F2" stroke-width="1.5" stroke-linecap="square"></path>
                <path d="M51.8037736,2.07692308 L63.7584906,2.07692308" id="Top" stroke="#F2F2F2" stroke-width="1.5" stroke-linecap="square"></path>
                <path d="M64.5056604,2.07692308 L64.5056604,28.8461538" id="Vertical" stroke="#F2F2F2" stroke-width="1.5" stroke-linecap="square"></path>
                <g id="Group" transform="translate(6.226415, 15.000000) scale(-1, 1) translate(-6.226415, -15.000000) " stroke="#F2F2F2" stroke-width="1.5" stroke-linecap="square">
                    <path d="M0.622641509,28.8461538 L10.5849057,28.8461538" id="Line-Copy-2"></path>
                    <path d="M0.622641509,2.07692308 L10.5849057,2.07692308" id="Line"></path>
                    <path d="M11.2075472,2.07692308 L11.2075472,28.8461538" id="Line-2"></path>
                </g>
                <polygon id="Shape" fill="#F2F2F2" fill-rule="nonzero" transform="translate(52.613208, 16.240385) scale(-1, 1) translate(-52.613208, -16.240385) " points="56.6603774 15.3692308 56.6603774 17.1115385 48.5660377 17.1115385 48.5660377 15.3692308"></polygon>
                <path d="M38.5539623,10.1884615 C40.0113015,9.57532309 41.3828574,8.80041621 42.6384906,7.88076923 L44.9298113,7.88076923 L44.9298113,23.0769231 L48.7403774,23.0769231 L48.7403774,24.6923077 L38.5664151,24.6923077 L38.5664151,23.0769231 L42.6509434,23.0769231 L42.6509434,10.1538462 L40.8950943,11.1 C40.1345592,11.5462449 39.3347406,11.9322296 38.5041509,12.2538462 L38.5539623,10.1884615 Z" id="Shape" fill="#F2F2F2" fill-rule="nonzero" transform="translate(43.622264, 16.286538) scale(-1, 1) translate(-43.622264, -16.286538) "></path>
                <polygon id="Shape" fill="#F2F2F2" fill-rule="nonzero" transform="translate(30.378679, 24.894231) scale(-1, 1) translate(-30.378679, -24.894231) " points="28.5045283 28.3153846 29.1271698 21.4730769 32.2528302 21.4730769 29.9864151 28.3153846"></polygon>
                <path d="M13.6483019,10.1884615 C15.1056411,9.57532309 16.477197,8.80041621 17.7328302,7.88076923 L20.0241509,7.88076923 L20.0241509,23.0769231 L23.8471698,23.0769231 L23.8471698,24.6923077 L13.6607547,24.6923077 L13.6607547,23.0769231 L17.745283,23.0769231 L17.745283,10.1538462 L15.989434,11.1 C15.2288988,11.5462449 14.4290802,11.9322296 13.5984906,12.2538462 L13.6483019,10.1884615 Z" id="Shape" fill="#F2F2F2" fill-rule="nonzero" transform="translate(18.722830, 16.286538) scale(-1, 1) translate(-18.722830, -16.286538) "></path>
            </g>
            <g id="-1-0" transform="translate(139.000000, 44.000000) scale(-1, 1) translate(-139.000000, -44.000000) translate(106.000000, 29.000000)">
                <path d="M51.5307692,28.8461538 L63.7153846,28.8461538" id="Line-Copy-2" stroke="#F2F2F2" stroke-width="1.5" stroke-linecap="square"></path>
                <path d="M51.5307692,2.07692308 L63.7153846,2.07692308" id="Line" stroke="#F2F2F2" stroke-width="1.5" stroke-linecap="square"></path>
                <path d="M64.4769231,2.07692308 L64.4769231,28.8461538" id="Line-2" stroke="#F2F2F2" stroke-width="1.5" stroke-linecap="square"></path>
                <g id="Group-4" transform="translate(6.346154, 15.000000) scale(-1, 1) translate(-6.346154, -15.000000) " stroke="#F2F2F2" stroke-width="1.5" stroke-linecap="square">
                    <path d="M0.634615385,28.8461538 L10.7884615,28.8461538" id="Line-Copy-2"></path>
                    <path d="M0.634615385,2.07692308 L10.7884615,2.07692308" id="Line"></path>
                    <path d="M11.4230769,2.07692308 L11.4230769,28.8461538" id="Line-2"></path>
                </g>
                <g id="Group-5" transform="translate(34.903846, 16.730769) scale(-1, 1) translate(-34.903846, -16.730769) translate(10.153846, 5.769231)" fill-rule="nonzero" fill="#F2F2F2">
                    <polygon id="Shape" points="9.32884615 8.34230769 9.32884615 10.0846154 1.01538462 10.0846154 1.01538462 8.34230769"></polygon>
                    <path d="M12.6923077,3.15 C14.1776726,2.53686155 15.5756047,1.76195468 16.8553846,0.842307692 L19.1907692,0.842307692 L19.1907692,16.0038462 L23.0873077,16.0038462 L23.0873077,17.6538462 L12.6923077,17.6538462 L12.6923077,16.0038462 L16.8553846,16.0038462 L16.8553846,3.11538462 L15.1165385,4.06153846 C14.3413776,4.50778335 13.5261779,4.89376808 12.6796154,5.21538462 L12.6923077,3.15 Z" id="Shape"></path>
                    <polygon id="Shape" points="27.9230769 21.2769231 28.5576923 14.4346154 31.7307692 14.4346154 29.4207692 21.2769231"></polygon>
                    <path d="M45.4257692,17.2384615 C43.7628793,18.1793163 41.6563515,18.1793163 39.9934615,17.2384615 C39.1867792,16.7526318 38.5276662,16.0899475 38.0769231,15.3115385 C37.0471746,13.4251281 36.5499294,11.3354293 36.63,9.23076923 C36.4521238,6.8195881 37.1330336,4.42042276 38.5719231,2.38846154 C39.0309702,1.82995215 39.626158,1.37576108 40.3107692,1.06153846 C41.827697,0.401908172 43.5915337,0.401908172 45.1084615,1.06153846 C46.4605885,1.73218084 47.4681653,2.85953946 47.9134615,4.2 C48.5187175,5.81927512 48.8149096,7.52072159 48.7892308,9.23076923 C48.8671851,11.3315557 48.3699957,13.4170552 47.3423077,15.3 C46.8933092,16.0826225 46.2340579,16.7494149 45.4257692,17.2384615 L45.4257692,17.2384615 Z M44.4230769,2.89615385 C43.9350196,2.49226213 43.2931159,2.27705264 42.6334615,2.29615385 C41.8731614,2.32045376 41.1689657,2.66614981 40.7296154,3.23076923 C39.6380769,4.45384615 39.0923077,6.45769231 39.0923077,9.24230769 C39.0246033,10.9069807 39.3267775,12.5669763 39.9807692,14.1230769 L44.4230769,2.89615385 Z M45.5653846,4.47692308 L41.1738462,15.6807692 C41.6556645,16.0389595 42.2654475,16.2237422 42.8873077,16.2 C43.6396215,16.172135 44.3344448,15.8264305 44.7657692,15.2653846 C45.8573077,14.0576923 46.4030769,12.0538462 46.4030769,9.25384615 C46.4511108,7.62519803 46.1537764,6.00337383 45.5273077,4.47692308 L45.5653846,4.47692308 Z" id="Shape"></path>
                </g>
            </g>
            <g id="0-0" transform="translate(138.000000, 155.000000) scale(-1, 1) translate(-138.000000, -155.000000) translate(105.000000, 140.000000)">
                <g id="Group-11" transform="translate(50.470588, 0.000000)" stroke="#F2F2F2" stroke-width="1.5" stroke-linecap="square">
                    <path d="M0.776470588,28.8461538 L13.2,28.8461538" id="Line-Copy-2"></path>
                    <path d="M0.776470588,2.07692308 L13.2,2.07692308" id="Line"></path>
                    <path d="M13.9764706,2.07692308 L13.9764706,28.8461538" id="Line-2"></path>
                </g>
                <g id="Group-10" stroke="#F2F2F2" stroke-width="1.5" stroke-linecap="square">
                    <path d="M1.81176471,28.8461538 L16.8235294,28.8461538" id="Line-Copy-3"></path>
                    <path d="M1.81176471,2.07692308 L16.8235294,2.07692308" id="Line-Copy"></path>
                    <path d="M0.970588235,2.07692308 L0.970588235,28.8461538" id="Line-2-Copy"></path>
                </g>
                <g id="Group-3" transform="translate(31.705882, 16.730769) scale(-1, 1) translate(-31.705882, -16.730769) translate(11.647059, 5.769231)" fill-rule="nonzero" fill="#F2F2F2">
                    <path d="M9.64117647,17.2384615 C7.94568087,18.1793163 5.79784854,18.1793163 4.10235294,17.2384615 C3.2798533,16.7526318 2.60781651,16.0899475 2.14823529,15.3115385 C1.10039659,13.4285937 0.59345836,11.3430942 0.672941176,9.24230769 C0.491577211,6.83112657 1.18583821,4.43196122 2.65294118,2.4 C3.12098926,1.84149061 3.72784739,1.38729954 4.42588235,1.07307692 C5.97255385,0.413446633 7.77097556,0.413446633 9.31764706,1.07307692 C10.6962863,1.7437193 11.7236195,2.87107792 12.1776471,4.21153846 C12.7947708,5.83081358 13.0967706,7.53226005 13.0705882,9.24230769 C13.1500711,11.3430942 12.6431328,13.4285937 11.5952941,15.3115385 C11.1357129,16.0899475 10.4636761,16.7526318 9.64117647,17.2384615 Z M8.58,2.89615385 C8.08237297,2.49226213 7.42788293,2.27705264 6.75529412,2.29615385 C5.98008613,2.32045376 5.26208272,2.66614981 4.81411765,3.23076923 C3.70117647,4.45384615 3.14470588,6.45769231 3.14470588,9.24230769 C3.07567399,10.9069807 3.3837731,12.5669763 4.05058824,14.1230769 L8.58,2.89615385 Z M9.74470588,4.47692308 L5.26705882,15.6807692 C5.75832456,16.0389595 6.3800641,16.2237422 7.01411765,16.2 C7.78118269,16.172135 8.48962997,15.8264305 8.92941176,15.2653846 C10.0423529,14.0576923 10.5988235,12.0538462 10.5988235,9.25384615 C10.6602114,7.62744242 10.3702403,6.00568735 9.74470588,4.47692308 Z" id="Shape"></path>
                    <polygon id="Shape" points="17.6129412 21.2769231 18.26 14.4346154 21.5082353 14.4346154 19.1529412 21.2769231"></polygon>
                    <path d="M35.5235294,17.2384615 C33.8280338,18.1793163 31.6802015,18.1793163 29.9847059,17.2384615 C29.1622062,16.7526318 28.4901694,16.0899475 28.0305882,15.3115385 C26.9827495,13.4285937 26.4758113,11.3430942 26.5552941,9.24230769 C26.3739302,6.83112657 27.0681912,4.43196122 28.5352941,2.4 C29.0033422,1.84149061 29.6102003,1.38729954 30.3082353,1.07307692 C31.8549068,0.413446633 33.6533285,0.413446633 35.2,1.07307692 C36.5786393,1.7437193 37.6059725,2.87107792 38.06,4.21153846 C38.6771237,5.83081358 38.9791236,7.53226005 38.9529412,9.24230769 C39.032424,11.3430942 38.5254858,13.4285937 37.4776471,15.3115385 C37.0180658,16.0899475 36.3460291,16.7526318 35.5235294,17.2384615 Z M34.4623529,2.89615385 C33.9647259,2.49226213 33.3102359,2.27705264 32.6376471,2.29615385 C31.8624391,2.32045376 31.1444357,2.66614981 30.6964706,3.23076923 C29.5835294,4.45384615 29.0270588,6.45769231 29.0270588,9.24230769 C28.9580269,10.9069807 29.266126,12.5669763 29.9329412,14.1230769 L34.4623529,2.89615385 Z M35.6270588,4.47692308 L31.1494118,15.6807692 C31.6406775,16.0389595 32.262417,16.2237422 32.8964706,16.2 C33.6635356,16.172135 34.3719829,15.8264305 34.8117647,15.2653846 C35.9247059,14.0576923 36.4811765,12.0538462 36.4811765,9.25384615 C36.5425644,7.62744242 36.2525933,6.00568735 35.6270588,4.47692308 Z" id="Shape"></path>
                </g>
            </g>
            <g id="-1--1" transform="translate(44.000000, 44.000000) scale(-1, 1) translate(-44.000000, -44.000000) translate(11.000000, 29.000000)">
                <path d="M52.5642857,28.8461538 L63.8785714,28.8461538" id="Line-Copy-2" stroke="#F2F2F2" stroke-width="1.5" stroke-linecap="square"></path>
                <path d="M52.5642857,2.07692308 L63.8785714,2.07692308" id="Line" stroke="#F2F2F2" stroke-width="1.5" stroke-linecap="square"></path>
                <path d="M64.5857143,2.07692308 L64.5857143,28.8461538" id="Line-2" stroke="#F2F2F2" stroke-width="1.5" stroke-linecap="square"></path>
                <g id="Group-2" transform="translate(5.892857, 15.000000) scale(-1, 1) translate(-5.892857, -15.000000) " stroke="#F2F2F2" stroke-width="1.5" stroke-linecap="square">
                    <path d="M0.589285714,28.8461538 L10.0178571,28.8461538" id="Line-Copy-2"></path>
                    <path d="M0.589285714,2.07692308 L10.0178571,2.07692308" id="Line"></path>
                    <path d="M10.6071429,2.07692308 L10.6071429,28.8461538" id="Line-2"></path>
                </g>
                <polygon id="Shape" fill="#F2F2F2" fill-rule="nonzero" transform="translate(52.481786, 15.282692) scale(-1, 1) translate(-52.481786, -15.282692) " points="56.3357143 14.4461538 56.3357143 16.1538462 48.6278571 16.1538462 48.6278571 14.4115385"></polygon>
                <path d="M37.8321429,9.23076923 C39.2114103,8.61763079 40.50949,7.84272391 41.6978571,6.92307692 L43.8428571,6.92307692 L43.8428571,22.0846154 L47.4610714,22.0846154 L47.4610714,23.7346154 L37.8439286,23.7346154 L37.8439286,22.0846154 L41.7096429,22.0846154 L41.7096429,9.23076923 L40.095,10.1769231 C39.3752078,10.623168 38.6182366,11.0091527 37.8321429,11.3307692 L37.8321429,9.23076923 Z" id="Shape" fill="#F2F2F2" fill-rule="nonzero" transform="translate(42.646607, 15.328846) scale(-1, 1) translate(-42.646607, -15.328846) "></path>
                <polygon id="Shape" fill="#F2F2F2" fill-rule="nonzero" transform="translate(32.558036, 23.959615) scale(-1, 1) translate(-32.558036, -23.959615) " points="30.7842857 27.3807692 31.3735714 20.5384615 34.3317857 20.5384615 32.1867857 27.3807692"></polygon>
                <polygon id="Shape" fill="#F2F2F2" fill-rule="nonzero" transform="translate(21.838929, 15.282692) scale(-1, 1) translate(-21.838929, -15.282692) " points="25.6928571 14.4461538 25.6928571 16.1538462 17.985 16.1538462 17.985 14.4115385"></polygon>
                <path d="M7.18928571,9.23076923 C8.56855317,8.61763079 9.8666329,7.84272391 11.055,6.92307692 L13.2,6.92307692 L13.2,22.0846154 L16.8182143,22.0846154 L16.8182143,23.7346154 L7.20107143,23.7346154 L7.20107143,22.0846154 L11.0667857,22.0846154 L11.0667857,9.23076923 L9.45214286,10.1769231 C8.73235066,10.623168 7.97537945,11.0091527 7.18928571,11.3307692 L7.18928571,9.23076923 Z" id="Shape" fill="#F2F2F2" fill-rule="nonzero" transform="translate(12.003750, 15.328846) scale(-1, 1) translate(-12.003750, -15.328846) "></path>
            </g>
            <g id="0--1" transform="translate(44.000000, 138.000000) scale(-1, 1) translate(-44.000000, -138.000000) translate(11.000000, 123.000000)">
                <path d="M51.2719166,28.1200265 L63.1038973,28.1200265" id="Bottom" stroke="#F2F2F2" stroke-width="1.5" stroke-linecap="square"></path>
                <path d="M51.2719166,2.02464191 L63.1038973,2.02464191" id="Top" stroke="#F2F2F2" stroke-width="1.5" stroke-linecap="square"></path>
                <path d="M63.8433961,2.02464191 L63.8433961,28.1200265" id="Vertical" stroke="#F2F2F2" stroke-width="1.5" stroke-linecap="square"></path>
                <path d="M7.96193704,10.1232095 C9.40431409,9.52550528 10.7617886,8.77010468 12.0045305,7.87360743 L14.2723268,7.87360743 L14.2723268,22.6534934 L18.0560956,22.6534934 L18.0560956,24.2619589 L7.986587,24.2619589 L7.986587,22.6534934 L12.0291804,22.6534934 L12.0291804,10.0669695 L10.3406582,10.9893064 C9.58793126,11.4243182 8.79632417,11.8005868 7.97426202,12.1141074 L7.96193704,10.1232095 Z" id="Shape" fill="#F2F2F2" fill-rule="nonzero" transform="translate(13.009016, 16.067783) scale(-1, 1) translate(-13.009016, -16.067783) "></path>
                <polygon id="Shape" fill="#F2F2F2" fill-rule="nonzero" transform="translate(23.269562, 16.011543) scale(-1, 1) translate(-23.269562, -16.011543) " points="27.2998306 15.1510703 27.2998306 16.8720159 19.2392937 16.8720159 19.2392937 15.1735663"></polygon>
                <polygon id="Shape" fill="#F2F2F2" fill-rule="nonzero" transform="translate(35.723954, 24.425055) scale(-1, 1) translate(-35.723954, -24.425055) " points="33.8690449 27.7600902 34.4852939 21.0900199 37.5788639 21.0900199 35.3357175 27.7600902"></polygon>
                <path d="M49.9700528,23.8232865 C48.3552885,24.7404576 46.3097256,24.7404576 44.6949614,23.8232865 C43.9116252,23.3496863 43.2715876,22.7036833 42.8338894,21.9448687 C41.8359437,20.1093222 41.3531435,18.0763198 41.4288417,16.0284151 C41.2561134,13.6779292 41.917317,11.3391567 43.3145636,9.35834483 C43.7603255,8.81389447 44.338288,8.37113649 45.0030859,8.06482361 C46.4761123,7.4217978 48.1889019,7.4217978 49.6619283,8.06482361 C50.9749234,8.7185843 51.9533399,9.81756458 52.3857489,11.1242825 C52.9734881,12.7027966 53.2611082,14.3614135 53.2361725,16.0284151 C53.3118707,18.0763198 52.8290704,20.1093222 51.8311248,21.9448687 C51.3934266,22.7036833 50.753389,23.3496863 49.9700528,23.8232865 L49.9700528,23.8232865 Z M48.9594044,9.84200928 C48.485472,9.4482845 47.8621456,9.23849235 47.2215823,9.25711273 C46.483286,9.28080096 45.7994704,9.617795 45.3728353,10.1682016 C44.312887,11.3604907 43.7829129,13.3138952 43.7829129,16.0284151 C43.7171679,17.6511843 44.0105969,19.2693938 44.6456615,20.7863236 L48.9594044,9.84200928 Z M50.0686526,11.3829867 L45.8288595,22.304805 C46.2967336,22.6539788 46.8888689,22.8341101 47.4927318,22.8109655 C48.2232729,22.783802 48.8979874,22.4467997 49.3168289,21.8998767 C50.3767771,20.7225849 50.9067513,18.7691804 50.9067513,16.0396631 C50.9573335,14.452742 50.6727928,12.8717658 50.0686526,11.3829867 L50.0686526,11.3829867 Z" id="Shape" fill="#F2F2F2" fill-rule="nonzero" transform="translate(47.322890, 16.046860) scale(-1, 1) translate(-47.322890, -16.046860) "></path>
                <path d="M1.84874699,28.1200265 L11.7087309,28.1200265" id="Line-Copy-2" stroke="#F2F2F2" stroke-width="1.5" stroke-linecap="square" transform="translate(6.778739, 28.120027) scale(-1, 1) translate(-6.778739, -28.120027) "></path>
                <path d="M1.84874699,2.02464191 L11.7087309,2.02464191" id="Line" stroke="#F2F2F2" stroke-width="1.5" stroke-linecap="square" transform="translate(6.778739, 2.024642) scale(-1, 1) translate(-6.778739, -2.024642) "></path>
                <path d="M1.23249799,2.02464191 L1.23249799,28.1200265" id="Line-2" stroke="#F2F2F2" stroke-width="1.5" stroke-linecap="square" transform="translate(1.232498, 15.072334) scale(-1, 1) translate(-1.232498, -15.072334) "></path>
            </g>
        </g>
    </g>
</svg>